<?xml version="1.0" encoding="UTF-8"?>
<svg width="96" height="96" viewBox="0 0 96 96" xmlns="http://www.w3.org/2000/svg">
  <!-- Gradient definitions -->
  <defs>
    <linearGradient id="shieldGradient" x1="0%" y1="0%" x2="100%" y2="100%">
      <stop offset="0%" style="stop-color:#2196F3;stop-opacity:1" />
      <stop offset="100%" style="stop-color:#1976D2;stop-opacity:1" />
    </linearGradient>
    <filter id="glow" x="-20%" y="-20%" width="140%" height="140%">
      <feGaussianBlur stdDeviation="2" result="blur"/>
      <feComposite in="SourceGraphic" in2="blur" operator="over"/>
    </filter>
  </defs>

  <!-- Outer shield with gradient -->
  <path d="M48 8L88 24V40C88 65.2 71.2 87.2 48 92C24.8 87.2 8 65.2 8 40V24L48 8Z" 
        fill="url(#shieldGradient)" stroke="#1565C0" stroke-width="2" filter="url(#glow)"/>
  
  <!-- Inner shield pattern -->
  <path d="M48 16L80 28V40C80 60.8 66.4 79.2 48 84C29.6 79.2 16 60.8 16 40V28L48 16Z" 
        fill="none" stroke="white" stroke-width="1" stroke-opacity="0.3"/>
  
  <!-- AI circuit pattern -->
  <g transform="translate(0, 4)">
    <!-- Main circuit path -->
    <path d="M32 36L44 48L64 28" 
          stroke="white" stroke-width="3" fill="none" stroke-linecap="round" stroke-linejoin="round"/>
    
    <!-- Circuit dots with glow -->
    <circle cx="32" cy="36" r="4" fill="white" filter="url(#glow)"/>
    <circle cx="44" cy="48" r="4" fill="white" filter="url(#glow)"/>
    <circle cx="64" cy="28" r="4" fill="white" filter="url(#glow)"/>
    
    <!-- Additional circuit elements -->
    <path d="M48 24V32M48 52V60" 
          stroke="white" stroke-width="2" stroke-dasharray="3 3" stroke-opacity="0.7"/>
    
    <!-- Data flow indicators -->
    <path d="M40 44L44 48L40 52" stroke="white" stroke-width="2" fill="none"/>
    <path d="M52 44L56 48L52 52" stroke="white" stroke-width="2" fill="none"/>
  </g>
  
  <!-- Decorative elements -->
  <circle cx="48" cy="48" r="2" fill="white" opacity="0.5"/>
  <path d="M48 20L48 76" stroke="white" stroke-width="1" stroke-opacity="0.2"/>
</svg> 